<?xml version="1.0" encoding="UTF-8" standalone="no"?>
<svg
   xmlns:dc="http://purl.org/dc/elements/1.1/"
   xmlns:cc="http://creativecommons.org/ns#"
   xmlns:rdf="http://www.w3.org/1999/02/22-rdf-syntax-ns#"
   xmlns:svg="http://www.w3.org/2000/svg"
   xmlns="http://www.w3.org/2000/svg"
   xmlns:sodipodi="http://sodipodi.sourceforge.net/DTD/sodipodi-0.dtd"
   xmlns:inkscape="http://www.inkscape.org/namespaces/inkscape"
   width="256px"
   height="100px"
   viewBox="0 0 256 100"
   version="1.1"
   preserveAspectRatio="xMidYMid"
   id="svg12"
   sodipodi:docname="npm.svg"
   inkscape:version="0.92.4 (5da689c313, 2019-01-14)">
  <metadata
     id="metadata18">
    <rdf:RDF>
      <cc:Work
         rdf:about="">
        <dc:format>image/svg+xml</dc:format>
        <dc:type
           rdf:resource="http://purl.org/dc/dcmitype/StillImage" />
      </cc:Work>
    </rdf:RDF>
  </metadata>
  <defs
     id="defs16" />
  <sodipodi:namedview
     pagecolor="#ffffff"
     bordercolor="#666666"
     borderopacity="1"
     objecttolerance="10"
     gridtolerance="10"
     guidetolerance="10"
     inkscape:pageopacity="0"
     inkscape:pageshadow="2"
     inkscape:window-width="1920"
     inkscape:window-height="1017"
     id="namedview14"
     showgrid="false"
     inkscape:zoom="1.5742188"
     inkscape:cx="128"
     inkscape:cy="50"
     inkscape:window-x="-8"
     inkscape:window-y="-8"
     inkscape:window-maximized="1"
     inkscape:current-layer="g10" />
  <g
     id="g10">
    <path
       d="M0,0 L0,85.4980695 L71.1660232,85.4980695 L71.1660232,99.8301158 L128,99.8301158 L128,85.4980695 L256,85.4980695 L256,0 L0,0 L0,0 Z"
       fill="#CB3837"
       id="path2"
       style="fill:#ff2a2a" />
    <path
       d="M42.5019305,14.3320463 L14.3320463,14.3320463 L14.3320463,28.6640927 L14.3320463,71.1660232 L42.5019305,71.1660232 L42.5019305,28.6640927 L56.8339768,28.6640927 L56.8339768,71.1660232 L71.1660232,71.1660232 L71.1660232,28.6640927 L71.1660232,14.3320463 L42.5019305,14.3320463 L42.5019305,14.3320463 Z"
       fill="#FFFFFF"
       id="path4" />
    <path
       d="M85.4980695,14.3320463 L85.4980695,68.2007722 L85.4980695,71.1660232 L85.4980695,85.4980695 L114.162162,85.4980695 L114.162162,71.1660232 L142.332046,71.1660232 L142.332046,14.3320463 L85.4980695,14.3320463 L85.4980695,14.3320463 Z M128,56.8339768 L114.162162,56.8339768 L114.162162,28.6640927 L128,28.6640927 L128,56.8339768 L128,56.8339768 Z"
       fill="#FFFFFF"
       id="path6" />
    <path
       d="M184.833977,14.3320463 L156.664093,14.3320463 L156.664093,28.6640927 L156.664093,71.1660232 L184.833977,71.1660232 L184.833977,28.6640927 L199.166023,28.6640927 L199.166023,71.1660232 L213.498069,71.1660232 L213.498069,28.6640927 L227.830116,28.6640927 L227.830116,71.1660232 L242.162162,71.1660232 L242.162162,28.6640927 L242.162162,15.3204633 L242.162162,14.3320463 L184.833977,14.3320463 L184.833977,14.3320463 Z"
       fill="#FFFFFF"
       id="path8" />
  </g>
</svg>
